<?xml version="1.0" encoding="iso-8859-1"?>
<!-- Generator: Adobe Illustrator 19.0.0, SVG Export Plug-In . SVG Version: 6.00 Build 0)  -->
<svg xmlns="http://www.w3.org/2000/svg" xmlns:xlink="http://www.w3.org/1999/xlink" version="1.1" id="Layer_1" x="0px" y="0px" viewBox="0 0 511.999 511.999" style="enable-background:new 0 0 511.999 511.999;" xml:space="preserve">
<path style="fill:#FF0435;" d="M244.027,185.385c-10.696,10.696-19.397,22.628-26.125,35.332  c-12.704,6.728-24.636,15.429-35.332,26.125c-57.656,57.656-51.029,144.508,6.628,202.166  c57.656,57.656,158.839,78.614,216.495,20.958c10.696-10.696,19.397-22.628,26.125-35.332c12.704-6.728,24.636-15.429,35.332-26.125  c57.656-57.656,36.699-158.839-20.958-216.495C388.536,134.356,301.683,127.728,244.027,185.385z"/>
<path style="fill:#E60020;" d="M431.916,392.359c-28.983,41.24-61.231,42.597-61.231,42.597  c-51.765,51.765-138.606,40.154-197.541-4.483c4.812,6.439,10.162,12.641,16.055,18.533  c57.656,57.656,158.839,78.614,216.495,20.958c10.696-10.696,19.397-22.628,26.125-35.332c12.704-6.728,24.636-15.429,35.332-26.125  c57.656-57.656,36.699-158.838-20.958-216.495c-5.892-5.892-12.094-11.242-18.533-16.055  C472.296,234.894,483.749,318.608,431.916,392.359z"/>
<path style="fill:#00BA64;" d="M192.008,195.049c0,0-55.609,127.013-181.331,0.424C10.678,195.473,120.39,72.78,192.008,195.049z"/>
<path style="fill:#00A553;" d="M10.678,195.473l181.331-0.424C192.008,195.049,136.4,322.062,10.678,195.473z"/>
<path d="M507.681,299.235c-5.487-41.595-25.881-82.694-55.949-112.763c-16.124-16.125-34.484-28.58-54.573-37.02  c-3.989-1.675-8.583,0.201-10.259,4.19c-1.676,3.99,0.2,8.584,4.19,10.259c18.206,7.649,34.881,18.971,49.562,33.653  c54.66,54.66,76.126,150.245,20.958,205.413c-9.907,9.907-21.164,18.231-33.458,24.741c-0.362,0.191-0.704,0.414-1.029,0.656  c-15.705,7.621-39.881,10.056-52.526,5.158c-4.035-1.566-8.575,0.44-10.138,4.476c-1.563,4.035,0.441,8.574,4.476,10.137  c6.46,2.503,14.2,3.59,22.283,3.59c7.302,0,14.875-0.895,22.036-2.428c-3.991,5.325-8.359,10.384-13.1,15.126  c-26.285,26.285-64.315,36.846-107.09,29.729c-4.27-0.714-8.305,2.175-9.016,6.444s2.175,8.305,6.444,9.016  c9.61,1.598,19.016,2.387,28.158,2.387c36.427,0,68.635-12.545,92.585-36.496c10.442-10.441,19.304-22.237,26.367-35.089  c12.852-7.064,24.647-15.925,35.089-26.366C501.254,385.484,513.682,344.709,507.681,299.235z"/>
<path d="M253.873,482.777c-22.252-9.284-42.701-22.877-59.135-39.312c-56.357-56.357-59.206-138.505-6.627-191.083  c9.894-9.895,21.137-18.21,33.413-24.716c1.402-0.731,2.596-1.927,3.328-3.328c6.507-12.276,14.821-23.518,24.715-33.412  c26.417-26.418,60.906-39.744,97.128-37.538c4.326,0.232,8.036-3.026,8.299-7.344c0.263-4.32-3.025-8.035-7.344-8.299  c-40.765-2.479-79.529,12.464-109.165,42.1c-8.518,8.518-15.966,17.951-22.263,28.112l-9.974-9.974  c-11.835-11.834-11.835-31.09,0-42.923c3.06-3.061,3.06-8.022,0-11.082c-3.06-3.059-8.022-3.059-11.081,0  c-6.775,6.775-10.988,15.155-12.648,23.926c-1.613-1.906-3.245-3.747-4.901-5.489c-2.982-3.139-7.942-3.263-11.079-0.283  c-3.138,2.98-3.264,7.942-0.283,11.078c5.894,6.203,11.542,13.659,16.827,22.208c-5.553,10.459-24.411,41.072-57.548,47.261  c-30.426,5.684-65.322-10.231-103.805-47.313c16.591-16.221,69.881-62.506,118.418-41.128c3.962,1.747,8.585-0.052,10.33-4.012  c1.744-3.961-0.052-8.586-4.012-10.33c-28.683-12.634-62.448-7.746-97.646,14.134c-25.803,16.04-43.252,35.407-43.983,36.224  c-2.765,3.092-2.641,7.803,0.282,10.745c38.607,38.87,74.914,58.479,108.177,58.477c5.11,0,10.154-0.463,15.118-1.391  c35.406-6.614,56.603-34.954,65.646-50.185c0.365,0.391,11.081,11.139,11.081,11.139c-10.16,6.297-19.592,13.744-28.112,22.262  c-58.897,58.897-56.047,150.573,6.627,213.249c17.867,17.866,40.061,32.63,64.182,42.693c0.986,0.412,2.008,0.606,3.014,0.606  c3.068,0,5.981-1.813,7.235-4.821C259.755,489.034,257.868,484.444,253.873,482.777  C231.622,473.494,257.868,484.444,253.873,482.777z"/>
<path d="M273.382,104.346c4.328,0,7.836-3.507,7.836-7.836V60.04c0-4.329-3.509-7.836-7.836-7.836c-4.328,0-7.836,3.507-7.836,7.836  V96.51C265.546,100.839,269.054,104.346,273.382,104.346z"/>
<path d="M321.548,108c4.328,0,7.836-3.507,7.836-7.836V53.742c0-4.329-3.509-7.836-7.836-7.836c-4.328,0-7.836,3.507-7.836,7.836  v46.421C313.712,104.493,317.221,108,321.548,108z"/>
<path d="M415.398,141.654c4.328,0,7.836-3.507,7.836-7.836V69.192c0-4.329-3.509-7.836-7.836-7.836  c-4.328,0-7.836,3.507-7.836,7.836v64.626C407.562,138.146,411.071,141.654,415.398,141.654z"/>
<path d="M369.716,61.58c4.328,0,7.836-3.507,7.836-7.836V7.836c0-4.329-3.509-7.836-7.836-7.836s-7.836,3.507-7.836,7.836v45.907  C361.88,58.071,365.388,61.58,369.716,61.58z"/>
<path d="M273.382,34.897c4.328,0,7.836-3.507,7.836-7.836v-7.259c0-4.329-3.509-7.836-7.836-7.836c-4.328,0-7.836,3.507-7.836,7.836  v7.259C265.546,31.39,269.054,34.897,273.382,34.897z"/>
<path d="M369.716,108c4.328,0,7.836-3.507,7.836-7.836V89.688c0-4.329-3.509-7.836-7.836-7.836s-7.836,3.507-7.836,7.836v10.475  C361.88,104.493,365.388,108,369.716,108z"/>
<g>
</g>
<g>
</g>
<g>
</g>
<g>
</g>
<g>
</g>
<g>
</g>
<g>
</g>
<g>
</g>
<g>
</g>
<g>
</g>
<g>
</g>
<g>
</g>
<g>
</g>
<g>
</g>
<g>
</g>
</svg>
